<svg width="937" height="208" viewBox="0 0 937 208" fill="none" xmlns="http://www.w3.org/2000/svg">
<path d="M114.062 195L58.5615 208L115.562 206L171.562 193.5L114.062 195Z" fill="#00CCCD"/>
<path d="M0.561523 71L50.0615 42L89.0615 0L41.0615 31L0.561523 71Z" fill="#FFB368"/>
<path d="M193.562 46.5L139.062 31L89.0615 0L144.062 18L193.562 46.5Z" fill="#5CD0FF"/>
<path d="M139.062 31L50.0615 42L89.0615 0L139.062 31Z" fill="#00CCCD"/>
<path d="M6.06152 149.5L58.5615 129L50.0615 42L0.561523 71L6.06152 149.5Z" fill="#005490"/>
<path d="M114.062 195L58.5615 129L6.06152 149.5L58.5615 208L114.062 195Z" fill="#009DEA"/>
<path d="M114.062 195L58.5615 129L151.562 117.5L114.062 195Z" fill="#5CD0FF"/>
<path d="M151.562 117.5L114.062 195L171.562 193.5L208.062 124.5L151.562 117.5Z" fill="#005490"/>
<path d="M151.562 117.5L208.062 124.5L193.562 46.5L139.062 31L151.562 117.5Z" fill="#FFB368"/>
<path d="M58.5615 129L151.562 117.5L139.062 31L50.0615 42L58.5615 129Z" fill="#FFECC2"/>
<path d="M320.871 156.29L314.473 122.652H282.161L275.923 156.29H259.127L281.841 43H315.113L337.987 156.29H320.871ZM293.998 60.4536L285.2 106.785H311.434L302.796 60.4536H293.998Z" fill="black"/>
<path d="M392.17 43C416.164 43 429.761 55.6935 429.761 76.3204C429.761 96.9474 416.164 109.958 392.17 109.958H373.775V156.29H356.66V43H392.17ZM389.931 94.0914C406.407 94.0914 412.325 87.5859 412.325 76.4791C412.325 65.3723 406.407 58.8669 389.931 58.8669H373.775V94.0914H389.931Z" fill="black"/>
<path d="M485.744 107.102H477.106L459.191 156.29H440.955L463.03 96.3127L443.195 43H461.43L477.426 86.1579H486.064L502.06 43H519.975L500.14 96.3127L522.215 156.29H503.659L485.744 107.102Z" fill="black"/>
<path d="M540.987 43H557.463V131.537H561.942L589.295 43H617.608V156.29H601.132V67.7523H596.653L569.3 156.29H540.987V43Z" fill="black"/>
<path d="M702.437 43H734.109V156.29H717.634V60.4536H713.155L702.757 113.449H676.844L666.447 60.4536H661.968V156.29H645.492V43H677.804L687.881 95.5194H692.36L702.437 43Z" fill="black"/>
<path d="M778.984 140.423H826.012V156.29H761.869V43H826.012V58.8669H778.984V89.6486H813.535V105.515H778.984V140.423Z" fill="black"/>
<path d="M922.924 140.423H937V184.057H919.884V156.29H855.901V184.057H838.785V140.423H849.342C855.581 125.032 861.499 100.755 861.499 62.9923V43H922.924V140.423ZM905.808 140.423V58.8669H878.135V65.3723C878.135 100.438 872.856 125.508 867.418 140.423H905.808Z" fill="black"/>
</svg>
